<svg width="18" height="18" viewBox="0 0 18 18" fill="none" xmlns="http://www.w3.org/2000/svg">
<g clip-path="url(#clip0_1_289)">
<path d="M7.6645 4.09059C7.61529 4.04212 7.55656 4.00361 7.49174 3.97733C7.42692 3.95104 7.35732 3.9375 7.28701 3.9375C7.2167 3.9375 7.14709 3.95104 7.08227 3.97733C7.01746 4.00361 6.95872 4.04212 6.90952 4.09059C6.85897 4.13897 6.81885 4.19653 6.79147 4.25996C6.7641 4.32338 6.75 4.3914 6.75 4.46011C6.75 4.52882 6.7641 4.59684 6.79147 4.66027C6.81885 4.72369 6.85897 4.78125 6.90952 4.82963L11.5796 8.99327L6.90952 13.1569C6.85897 13.2053 6.81885 13.2629 6.79147 13.3263C6.7641 13.3897 6.75 13.4577 6.75 13.5264C6.75 13.5951 6.7641 13.6632 6.79147 13.7266C6.81885 13.79 6.85897 13.8476 6.90952 13.896C7.0113 13.9985 7.15074 14.0583 7.29779 14.0625C7.36584 14.0627 7.43325 14.0499 7.49618 14.0249C7.5591 13.9999 7.6163 13.9631 7.6645 13.9168L12.766 9.37841C12.8202 9.32881 12.8633 9.26908 12.8928 9.20287C12.9223 9.13665 12.9375 9.06534 12.9375 8.99327C12.9375 8.9212 12.9223 8.84989 12.8928 8.78368C12.8633 8.71746 12.8202 8.65773 12.766 8.60813L7.6645 4.09059Z" fill="#8E8E8E"/>
<path d="M13.2609 0.000294828H4.62347C3.3933 0.0168522 2.21898 0.516749 1.35397 1.39208C0.48896 2.26742 0.00264717 3.44798 0 4.67896V13.3213C0 14.5622 0.49265 15.7522 1.36957 16.6297C2.24649 17.5071 3.43585 18 4.67601 18H13.3135C14.5546 18 15.7451 17.5074 16.6236 16.6303C17.5022 15.7532 17.9972 14.5632 18 13.3213V4.67896C17.9987 4.0596 17.8747 3.44665 17.6353 2.8755C17.3959 2.30434 17.0457 1.78631 16.6051 1.3513C16.1645 0.91629 15.6421 0.572931 15.0681 0.341047C14.4941 0.109163 13.8799 -0.00665009 13.2609 0.000294828ZM16.8967 13.3213C16.8967 13.7986 16.8026 14.2711 16.6197 14.7119C16.4369 15.1526 16.1689 15.553 15.8312 15.8899C15.4934 16.2269 15.0925 16.4939 14.6515 16.6755C14.2104 16.8572 13.7379 16.95 13.2609 16.9486H4.62347C3.67113 16.9348 2.76249 16.5466 2.09395 15.8678C1.42541 15.189 1.05069 14.2743 1.05079 13.3213V4.67896C1.0534 3.72681 1.42899 2.81363 2.09696 2.13546C2.76492 1.45729 3.672 1.06819 4.62347 1.05168H13.2609C14.2234 1.05168 15.1466 1.4335 15.8281 2.11344C16.5096 2.79339 16.8939 3.71598 16.8967 4.67896V13.3213Z" fill="#8E8E8E"/>
</g>
<defs>
<clipPath id="clip0_1_289">
<rect width="18" height="18" fill="white"/>
</clipPath>
</defs>
</svg>
