<svg width="18" height="18" viewBox="0 0 18 18" fill="none" xmlns="http://www.w3.org/2000/svg">
<g clip-path="url(#clip0_1_283)">
<path d="M13.9094 7.6645C13.9579 7.61529 13.9964 7.55656 14.0227 7.49174C14.049 7.42692 14.0625 7.35732 14.0625 7.28701C14.0625 7.2167 14.049 7.14709 14.0227 7.08228C13.9964 7.01746 13.9579 6.95872 13.9094 6.90952C13.861 6.85897 13.8035 6.81885 13.74 6.79148C13.6766 6.7641 13.6086 6.75 13.5399 6.75C13.4712 6.75 13.4032 6.7641 13.3397 6.79148C13.2763 6.81885 13.2188 6.85897 13.1704 6.90952L9.00673 11.5796L4.84309 6.90952C4.79471 6.85897 4.73715 6.81885 4.67373 6.79147C4.6103 6.7641 4.54228 6.75 4.47357 6.75C4.40486 6.75 4.33684 6.7641 4.27342 6.79147C4.20999 6.81885 4.15243 6.85897 4.10405 6.90952C4.00153 7.0113 3.94172 7.15074 3.9375 7.29779C3.93734 7.36584 3.95013 7.43325 3.97514 7.49618C4.00014 7.5591 4.03687 7.6163 4.08323 7.6645L8.62159 12.766C8.67119 12.8202 8.73092 12.8633 8.79713 12.8928C8.86335 12.9223 8.93466 12.9375 9.00673 12.9375C9.0788 12.9375 9.15011 12.9223 9.21633 12.8928C9.28254 12.8633 9.34227 12.8202 9.39187 12.766L13.9094 7.6645Z" fill="#5245E5"/>
<path d="M17.9997 13.2609L17.9997 4.62347C17.9831 3.3933 17.4833 2.21898 16.6079 1.35397C15.7326 0.488961 14.552 0.00264781 13.321 5.82281e-07L4.67866 2.04511e-07C3.4378 1.50271e-07 2.24777 0.49265 1.37035 1.36957C0.492932 2.24649 6.36619e-07 3.43585 5.8241e-07 4.67601L2.04854e-07 13.3135C-1.75675e-06 14.5546 0.492592 15.7451 1.36971 16.6236C2.24683 17.5022 3.43684 17.9972 4.67866 18L13.321 18C13.9404 17.9987 14.5533 17.8747 15.1245 17.6353C15.6957 17.3959 16.2137 17.0457 16.6487 16.6051C17.0837 16.1645 17.4271 15.6421 17.659 15.0681C17.8908 14.4941 18.0067 13.8799 17.9997 13.2609ZM4.67866 16.8967C4.20144 16.8967 3.7289 16.8026 3.28813 16.6197C2.84736 16.4369 2.44703 16.1689 2.11007 15.8312C1.7731 15.4934 1.50614 15.0925 1.32447 14.6515C1.1428 14.2104 1.05 13.7379 1.05139 13.2609L1.05139 4.62347C1.0652 3.67113 1.45344 2.76249 2.1322 2.09395C2.81095 1.42541 3.72569 1.05069 4.67866 1.05079L13.321 1.05079C14.2732 1.0534 15.1864 1.429 15.8645 2.09696C16.5427 2.76492 16.9318 3.672 16.9483 4.62347L16.9483 13.2609C16.9483 14.2234 16.5665 15.1466 15.8866 15.8281C15.2066 16.5096 14.284 16.8939 13.321 16.8967L4.67866 16.8967Z" fill="#5245E5"/>
</g>
<defs>
<clipPath id="clip0_1_283">
<rect width="18" height="18" fill="white" transform="translate(18) rotate(90)"/>
</clipPath>
</defs>
</svg>
