<svg width="14" height="14" viewBox="0 0 14 14" fill="none" xmlns="http://www.w3.org/2000/svg">
<path d="M13.9635 5.06994C13.8719 4.78645 13.6204 4.58511 13.3229 4.5583L9.28216 4.19139L7.68432 0.451504C7.56651 0.177419 7.29819 0 7.00007 0C6.70195 0 6.43364 0.177419 6.31582 0.452145L4.71798 4.19139L0.67656 4.5583C0.379616 4.58575 0.128816 4.78645 0.0366355 5.06994C-0.0555452 5.35342 0.0295858 5.66436 0.254216 5.86036L3.30857 8.53905L2.40791 12.5065C2.34201 12.7982 2.45523 13.0997 2.69727 13.2747C2.82737 13.3687 2.97958 13.4165 3.13307 13.4165C3.26542 13.4165 3.39669 13.3808 3.51451 13.3103L7.00007 11.2271L10.4844 13.3103C10.7393 13.4637 11.0607 13.4497 11.3022 13.2747C11.5444 13.0992 11.6575 12.7975 11.5916 12.5065L10.6909 8.53905L13.7453 5.8609C13.9699 5.66436 14.0557 5.35396 13.9635 5.06994Z" fill="#FFC107"/>
</svg>
